<?xml version="1.0" encoding="UTF-8" standalone="no"?>
<svg
   width="510.00974mm"
   height="510.00974mm"
   viewBox="-204 -207 510.00974 510.00974"
   version="1.1"
   id="svg1505"
   sodipodi:docname="led_layout.svg"
   inkscape:version="1.1.2 (0a00cf5339, 2022-02-04)"
   xmlns:inkscape="http://www.inkscape.org/namespaces/inkscape"
   xmlns:sodipodi="http://sodipodi.sourceforge.net/DTD/sodipodi-0.dtd"
   xmlns="http://www.w3.org/2000/svg"
   xmlns:svg="http://www.w3.org/2000/svg"
   xmlns:rdf="http://www.w3.org/1999/02/22-rdf-syntax-ns#"
   xmlns:cc="http://creativecommons.org/ns#"
   xmlns:dc="http://purl.org/dc/elements/1.1/">
  <defs
     id="defs1509" />
  <sodipodi:namedview
     id="namedview1507"
     pagecolor="#ffffff"
     bordercolor="#666666"
     borderopacity="1.0"
     inkscape:pageshadow="2"
     inkscape:pageopacity="0.0"
     inkscape:pagecheckerboard="0"
     inkscape:document-units="mm"
     showgrid="false"
     lock-margins="true"
     fit-margin-top="5"
     fit-margin-left="5"
     fit-margin-right="5"
     fit-margin-bottom="5"
     inkscape:zoom="0.14651302"
     inkscape:cx="767.84984"
     inkscape:cy="740.54851"
     inkscape:window-width="1280"
     inkscape:window-height="651"
     inkscape:window-x="0"
     inkscape:window-y="0"
     inkscape:window-maximized="1"
     inkscape:current-layer="svg1505" />
  <title
     id="title1501">OpenSCAD Model</title>
  <path
     d="m 51.500342,-147.01513 0.492096,-0.062 0.485336,-0.102 0.4753,-0.141 0.46197,-0.18 0.44551,-0.218 0.426,-0.254 0.40359,-0.288 0.3784,-0.321 0.35067,-0.35 0.32049,-0.379 0.28816,-0.403 0.25385,-0.426 0.21779,-0.446 0.18027,-0.462 0.14149,-0.475 0.10178,-0.485 0.06132,-0.493 0.02051,-0.495 -0.02051,-0.495 -0.06132,-0.493 -0.10178,-0.485 -0.14149,-0.475 -0.18027,-0.462 -0.21779,-0.446 -0.25385,-0.426 -0.28816,-0.403 -0.32049,-0.379 -0.35067,-0.35 -0.3784,-0.321 -0.40359,-0.288 -0.426,-0.254 -0.44551,-0.218 -0.46197,-0.18 -0.4753,-0.141 -0.485336,-0.102 -0.492096,-0.061 -0.495468,-0.021 -0.495468,0.021 -0.492096,0.061 -0.485336,0.102 -0.4753,0.141 -0.46197,0.18 -0.44551,0.218 -0.426,0.254 -0.40359,0.288 -0.3784,0.321 -0.35067,0.35 -0.32049,0.379 -0.28816,0.403 -0.25385,0.426 -0.21779,0.446 -0.18027,0.462 -0.14149,0.475 -0.10178,0.485 -0.06132,0.493 -0.02051,0.495 0.02051,0.495 0.06132,0.493 0.10178,0.485 0.14149,0.475 0.18027,0.462 0.21779,0.446 0.25385,0.426 0.28816,0.403 0.32049,0.379 0.35067,0.35 0.3784,0.321 0.40359,0.288 0.426,0.254 0.44551,0.218 0.46197,0.18 0.4753,0.141 0.485336,0.102 0.492096,0.062 0.495468,0.02 z m 68.636128,12.129 0.4931,-0.052 0.4871,-0.093 0.4779,-0.132 0.4652,-0.172 0.4494,-0.21 0.4306,-0.246 0.4088,-0.28 0.3843,-0.314 0.357,-0.344 0.3274,-0.373 0.2955,-0.398 0.2616,-0.421 0.226,-0.442 0.1887,-0.458 0.1502,-0.473 0.1107,-0.483 0.0703,-0.491 0.0296,-0.495 -0.0114,-0.496 -0.0522,-0.493 -0.0929,-0.487 -0.1327,-0.478 -0.1718,-0.465 -0.2096,-0.449 -0.2459,-0.431 -0.2807,-0.409 -0.3135,-0.384 -0.3442,-0.357 -0.3724,-0.328 -0.3983,-0.295 -0.4212,-0.262 -0.4415,-0.226 -0.4585,-0.188 -0.4726,-0.151 -0.4834,-0.11 -0.4909,-0.071 -0.495,-0.029 -0.4958,0.011 -0.4931,0.052 -0.4872,0.093 -0.4778,0.133 -0.4652,0.172 -0.4494,0.209 -0.4306,0.246 -0.4088,0.281 -0.3843,0.314 -0.357,0.344 -0.3274,0.372 -0.2955,0.398 -0.2616,0.422 -0.226,0.441 -0.1887,0.459 -0.1502,0.472 -0.1107,0.484 -0.0704,0.491 -0.0295,0.495 0.0113,0.495 0.0523,0.493 0.0929,0.488 0.1327,0.477 0.1718,0.466 0.2095,0.449 0.246,0.431 0.2807,0.408 0.3135,0.385 0.3441,0.357 0.3725,0.327 0.3982,0.296 0.4213,0.261 0.4414,0.226 0.4586,0.189 0.4726,0.15 0.4834,0.111 0.4909,0.07 0.495,0.03 z m -137.272396,-0.018 0.4909,-0.07 0.4834,-0.111 0.4726,-0.15 0.4586,-0.189 0.4414,-0.226 0.4213,-0.261 0.3982,-0.296 0.3725,-0.327 0.3441,-0.357 0.3135,-0.385 0.2807,-0.408 0.246,-0.431 0.2095,-0.449 0.1718,-0.466 0.1327,-0.477 0.0929,-0.488 0.0523,-0.493 0.0113,-0.495 -0.0295,-0.495 -0.0704,-0.491 -0.1107,-0.484 -0.1502,-0.472 -0.1887,-0.459 -0.226,-0.441 -0.2616,-0.422 -0.2955,-0.398 -0.3274,-0.372 -0.357,-0.344 -0.3843,-0.314 -0.4088,-0.281 -0.4306,-0.246 -0.4494,-0.209 -0.4652,-0.172 -0.4778,-0.133 -0.4872,-0.093 -0.4931,-0.052 -0.4958,-0.011 -0.495,0.029 -0.4909,0.071 -0.4834,0.11 -0.4726,0.151 -0.4585,0.188 -0.4415,0.226 -0.4212,0.262 -0.3983,0.295 -0.3724,0.328 -0.3442,0.357 -0.3135,0.384 -0.2807,0.409 -0.2459,0.431 -0.2096,0.449 -0.1718,0.465 -0.1327,0.478 -0.0929,0.487 -0.0522,0.493 -0.0114,0.496 0.0296,0.495 0.0703,0.491 0.1107,0.483 0.1502,0.473 0.1887,0.458 0.226,0.442 0.2616,0.421 0.2955,0.398 0.3274,0.373 0.357,0.344 0.3843,0.314 0.4088,0.28 0.4306,0.246 0.4494,0.21 0.4652,0.172 0.4779,0.132 0.4871,0.093 0.4931,0.052 0.4958,0.012 z m -60.3452,34.891 0.49,-0.079 0.481,-0.12 0.47,-0.158 0.455,-0.198 0.437,-0.234 0.417,-0.269 0.392,-0.303 0.367,-0.334 0.337,-0.363 0.307,-0.39 0.273,-0.414 0.238,-0.435 0.201,-0.453 0.163,-0.469 0.124,-0.48 0.084,-0.488 0.043,-0.494 0.003,-0.496 -0.039,-0.495 -0.079,-0.489 -0.12,-0.482 -0.159,-0.469 -0.197,-0.455 -0.234,-0.438 -0.269,-0.416 -0.303,-0.393 -0.334,-0.366 -0.364,-0.338 -0.389,-0.306 -0.414,-0.273 -0.435,-0.238 -0.454,-0.201 -0.468,-0.164 -0.48,-0.124 -0.489,-0.083 -0.494,-0.044 -0.496,-0.002 -0.494,0.039 -0.49,0.079 -0.481,0.12 -0.47,0.159 -0.455,0.197 -0.437,0.234 -0.416,0.269 -0.393,0.303 -0.366,0.334 -0.338,0.363 -0.306,0.39 -0.273,0.414 -0.238,0.435 -0.202,0.453 -0.163,0.469 -0.124,0.48 -0.084,0.489 -0.043,0.494 -0.002,0.495 0.038,0.495 0.08,0.489 0.119,0.482 0.159,0.469 0.197,0.455 0.234,0.438 0.27,0.416 0.302,0.393 0.335,0.366 0.363,0.338 0.39,0.306 0.414,0.273 0.435,0.238 0.453,0.202 0.468,0.163 0.48,0.124 0.489,0.084 0.494,0.043 0.496,0.002 z m 257.961996,0.037 0.494,-0.043 0.489,-0.084 0.48,-0.124 0.468,-0.163 0.453,-0.202 0.435,-0.238 0.414,-0.273 0.39,-0.306 0.363,-0.338 0.335,-0.366 0.302,-0.393 0.27,-0.416 0.234,-0.438 0.197,-0.455 0.159,-0.469 0.119,-0.482 0.08,-0.489 0.038,-0.495 -0.002,-0.495 -0.043,-0.494 -0.084,-0.489 -0.124,-0.48 -0.163,-0.469 -0.202,-0.453 -0.238,-0.435 -0.273,-0.414 -0.306,-0.39 -0.338,-0.363 -0.366,-0.334 -0.393,-0.303 -0.416,-0.269 -0.437,-0.234 -0.455,-0.197 -0.47,-0.159 -0.481,-0.12 -0.49,-0.079 -0.494,-0.039 -0.496,0.002 -0.494,0.044 -0.489,0.083 -0.48,0.124 -0.468,0.164 -0.454,0.201 -0.435,0.238 -0.414,0.273 -0.389,0.306 -0.364,0.338 -0.334,0.366 -0.303,0.393 -0.269,0.416 -0.234,0.438 -0.197,0.455 -0.159,0.469 -0.12,0.482 -0.079,0.489 -0.039,0.495 0.003,0.496 0.043,0.494 0.084,0.488 0.124,0.48 0.163,0.469 0.201,0.453 0.238,0.435 0.273,0.414 0.307,0.39 0.337,0.363 0.367,0.334 0.392,0.303 0.417,0.269 0.437,0.234 0.455,0.198 0.47,0.158 0.481,0.12 0.49,0.079 0.494,0.039 z m -128.980528,19.961 0.492096,-0.062 0.485336,-0.102 0.4753,-0.141 0.46197,-0.18 0.44551,-0.218 0.426,-0.254 0.40359,-0.288 0.3784,-0.321 0.35067,-0.35 0.32049,-0.379 0.28816,-0.403 0.25385,-0.426 0.21779,-0.446 0.18027,-0.462 0.14149,-0.475 0.10178,-0.485 0.06132,-0.493 0.02051,-0.495 -0.02051,-0.495 -0.06132,-0.493 -0.10178,-0.485 -0.14149,-0.475 -0.18027,-0.462 -0.21779,-0.446 -0.25385,-0.426 -0.28816,-0.403 -0.32049,-0.379 -0.35067,-0.35 -0.3784,-0.321 -0.40359,-0.288 -0.426,-0.254 -0.44551,-0.218 -0.46197,-0.18 -0.4753,-0.141 -0.485336,-0.102 -0.492096,-0.061 -0.495468,-0.021 -0.495468,0.021 -0.492096,0.061 -0.485336,0.102 -0.4753,0.141 -0.46197,0.18 -0.44551,0.218 -0.426,0.254 -0.40359,0.288 -0.3784,0.321 -0.35067,0.35 -0.32049,0.379 -0.28816,0.403 -0.25385,0.426 -0.21779,0.446 -0.18027,0.462 -0.14149,0.475 -0.10178,0.485 -0.06132,0.493 -0.02051,0.495 0.02051,0.495 0.06132,0.493 0.10178,0.485 0.14149,0.475 0.18027,0.462 0.21779,0.446 0.25385,0.426 0.28816,0.403 0.32049,0.379 0.35067,0.35 0.3784,0.321 0.40359,0.288 0.426,0.254 0.44551,0.218 0.46197,0.18 0.4753,0.141 0.485336,0.102 0.492096,0.062 0.495468,0.02 z m -66.835468,17.936 0.4903,-0.075 0.4823,-0.115 0.4712,-0.154 0.4569,-0.193 0.4393,-0.23 0.4189,-0.266 0.3954,-0.299 0.3695,-0.331 0.3408,-0.36 0.31,-0.387 0.2769,-0.411 0.242,-0.433 0.2055,-0.452 0.1674,-0.466 0.1284,-0.479 0.0883,-0.488 0.0478,-0.494 0.0068,-0.496 -0.0341,-0.494 -0.0749,-0.491 -0.1151,-0.482 -0.1545,-0.471 -0.193,-0.457 -0.2299,-0.439 -0.2655,-0.419 -0.2992,-0.396 -0.3308,-0.369 -0.3602,-0.341 -0.3871,-0.31 -0.4114,-0.277 -0.4328,-0.242 -0.4513,-0.205 -0.4668,-0.168 -0.479,-0.128 -0.488,-0.089 -0.4936,-0.047 -0.4958,-0.007 -0.4947,0.034 -0.4903,0.075 -0.4823,0.115 -0.4712,0.155 -0.4569,0.192 -0.4393,0.23 -0.4188,0.266 -0.3955,0.299 -0.3695,0.331 -0.3408,0.36 -0.31,0.387 -0.2769,0.412 -0.242,0.432 -0.2055,0.452 -0.1674,0.467 -0.1284,0.479 -0.0883,0.487 -0.0478,0.494 -0.0068,0.496 0.0341,0.495 0.0749,0.49 0.1151,0.482 0.1545,0.471 0.193,0.457 0.2299,0.44 0.2655,0.418 0.2992,0.396 0.3308,0.369 0.3602,0.341 0.3871,0.31 0.4114,0.277 0.4328,0.242 0.4514,0.206 0.4667,0.167 0.479,0.128 0.488,0.089 0.4936,0.047 0.4958,0.007 z m 133.670496,0.027 0.4936,-0.047 0.488,-0.089 0.479,-0.128 0.4667,-0.167 0.4514,-0.206 0.4328,-0.242 0.4114,-0.277 0.3871,-0.31 0.3602,-0.341 0.3308,-0.369 0.2992,-0.396 0.2655,-0.418 0.2299,-0.44 0.193,-0.457 0.1545,-0.471 0.1151,-0.482 0.0749,-0.49 0.0341,-0.495 -0.007,-0.496 -0.0478,-0.494 -0.0883,-0.487 -0.1284,-0.479 -0.1674,-0.467 -0.2055,-0.452 -0.242,-0.432 -0.2769,-0.412 -0.31,-0.387 -0.3408,-0.36 -0.3695,-0.331 -0.3955,-0.299 -0.4188,-0.266 -0.4393,-0.23 -0.4569,-0.192 -0.4712,-0.155 -0.4823,-0.115 -0.4903,-0.075 -0.4947,-0.034 -0.4958,0.007 -0.4936,0.047 -0.488,0.089 -0.479,0.128 -0.4668,0.168 -0.4513,0.205 -0.4328,0.242 -0.4114,0.277 -0.3871,0.31 -0.3602,0.341 -0.3308,0.369 -0.2992,0.396 -0.2655,0.419 -0.2299,0.439 -0.193,0.457 -0.1545,0.471 -0.1151,0.482 -0.0749,0.491 -0.0341,0.494 0.007,0.496 0.0478,0.494 0.0883,0.488 0.1284,0.479 0.1674,0.466 0.2055,0.452 0.242,0.433 0.2769,0.411 0.31,0.387 0.3408,0.36 0.3695,0.331 0.3954,0.299 0.4189,0.266 0.4393,0.23 0.4569,0.193 0.4712,0.154 0.4823,0.115 0.4903,0.075 0.4947,0.034 z m -241.0715,15.5479 0.494,-0.0478 0.488,-0.0883 0.479,-0.1284 0.467,-0.1674 0.451,-0.2055 0.433,-0.242 0.411,-0.2769 0.387,-0.31 0.361,-0.3408 0.33,-0.3695 0.3,-0.3954 0.265,-0.4189 0.23,-0.4393 0.193,-0.4569 0.155,-0.4712 0.115,-0.4823 0.074,-0.4903 0.035,-0.495 -0.007,-0.496 -0.048,-0.493 -0.088,-0.488 -0.129,-0.479 -0.167,-0.467 -0.206,-0.451 -0.242,-0.433 -0.277,-0.411 -0.309,-0.388 -0.341,-0.36 -0.37,-0.33 -0.395,-0.3 -0.419,-0.265 -0.439,-0.23 -0.457,-0.193 -0.471,-0.155 -0.483,-0.115 -0.49,-0.075 -0.495,-0.034 -0.496,0.007 -0.493,0.048 -0.488,0.088 -0.479,0.129 -0.467,0.167 -0.451,0.205 -0.433,0.242 -0.412,0.277 -0.387,0.31 -0.36,0.341 -0.331,0.37 -0.299,0.395 -0.265,0.419 -0.23,0.439 -0.193,0.457 -0.155,0.471 -0.115,0.483 -0.075,0.49 -0.034,0.495 0.007,0.496 0.048,0.4931 0.088,0.488 0.128,0.479 0.168,0.4668 0.205,0.4513 0.242,0.4328 0.277,0.4114 0.31,0.3871 0.341,0.3602 0.37,0.3308 0.395,0.2992 0.419,0.2655 0.439,0.2299 0.457,0.193 0.471,0.1545 0.483,0.1151 0.49,0.0749 0.495,0.0341 z m 348.472,-0.0273 0.49,-0.0749 0.483,-0.1151 0.471,-0.1545 0.457,-0.193 0.439,-0.2299 0.419,-0.2655 0.395,-0.2992 0.37,-0.3308 0.341,-0.3602 0.31,-0.3871 0.277,-0.4114 0.242,-0.4328 0.205,-0.4513 0.168,-0.4668 0.128,-0.479 0.088,-0.488 0.048,-0.4931 0.007,-0.496 -0.034,-0.495 -0.075,-0.49 -0.115,-0.483 -0.155,-0.471 -0.193,-0.457 -0.23,-0.439 -0.265,-0.419 -0.299,-0.395 -0.331,-0.37 -0.36,-0.341 -0.387,-0.31 -0.412,-0.277 -0.433,-0.242 -0.451,-0.205 -0.467,-0.167 -0.479,-0.129 -0.488,-0.088 -0.493,-0.048 -0.496,-0.007 -0.495,0.034 -0.49,0.075 -0.483,0.115 -0.471,0.155 -0.457,0.193 -0.439,0.23 -0.419,0.265 -0.395,0.3 -0.37,0.33 -0.341,0.36 -0.309,0.388 -0.277,0.411 -0.242,0.433 -0.206,0.451 -0.167,0.467 -0.129,0.479 -0.088,0.488 -0.048,0.493 -0.007,0.496 0.035,0.495 0.074,0.4903 0.115,0.4823 0.155,0.4712 0.193,0.4569 0.23,0.4393 0.265,0.4189 0.3,0.3954 0.33,0.3695 0.361,0.3408 0.387,0.31 0.411,0.2769 0.433,0.242 0.451,0.2055 0.467,0.1674 0.479,0.1284 0.488,0.0883 0.494,0.0478 0.495,0.0068 z m -174.235528,33.5159 0.492096,-0.0613 0.485336,-0.1018 0.4753,-0.1415 0.46197,-0.1803 0.44551,-0.2177 0.426,-0.2539 0.40359,-0.2882 0.3784,-0.3204 0.35067,-0.3507 0.32049,-0.3784 0.28816,-0.4036 0.25385,-0.426 0.21779,-0.4455 0.18027,-0.462 0.14149,-0.4753 0.10178,-0.4853 0.06132,-0.4921 0.02051,-0.4955 -0.02051,-0.4955 -0.06132,-0.4921 -0.10178,-0.4853 -0.14149,-0.4753 -0.18027,-0.462 -0.21779,-0.4455 -0.25385,-0.426 -0.28816,-0.4036 -0.32049,-0.3784 -0.35067,-0.3506 -0.3784,-0.3205 -0.40359,-0.2882 -0.426,-0.2538 -0.44551,-0.2178 -0.46197,-0.1803 -0.4753,-0.1415 -0.485336,-0.1018 -0.492096,-0.0613 -0.495468,-0.0205 -0.495468,0.0205 -0.492096,0.0613 -0.485336,0.1018 -0.4753,0.1415 -0.46197,0.1803 -0.44551,0.2178 -0.426,0.2538 -0.40359,0.2882 -0.3784,0.3205 -0.35067,0.3506 -0.32049,0.3784 -0.28816,0.4036 -0.25385,0.426 -0.21779,0.4455 -0.18027,0.462 -0.14149,0.4753 -0.10178,0.4853 -0.06132,0.4921 -0.02051,0.4955 0.02051,0.4955 0.06132,0.4921 0.10178,0.4853 0.14149,0.4753 0.18027,0.462 0.21779,0.4455 0.25385,0.426 0.28816,0.4036 0.32049,0.3784 0.35067,0.3507 0.3784,0.3204 0.40359,0.2882 0.426,0.2539 0.44551,0.2177 0.46197,0.1803 0.4753,0.1415 0.485336,0.1018 0.492096,0.0613 0.495468,0.0205 z m -116.212468,0.0114 0.494,-0.0478 0.488,-0.0883 0.479,-0.1284 0.466,-0.1674 0.452,-0.2055 0.433,-0.242 0.411,-0.2769 0.387,-0.31 0.36,-0.3408 0.331,-0.3695 0.299,-0.3954 0.266,-0.4189 0.23,-0.4393 0.193,-0.4569 0.154,-0.4712 0.115,-0.4823 0.075,-0.4903 0.034,-0.4947 -0.007,-0.4958 -0.047,-0.4936 -0.089,-0.488 -0.128,-0.479 -0.167,-0.4667 -0.206,-0.4514 -0.242,-0.4328 -0.277,-0.4114 -0.31,-0.3871 -0.341,-0.3602 -0.369,-0.3308 -0.396,-0.2992 -0.418,-0.2655 -0.44,-0.2299 -0.457,-0.193 -0.471,-0.1545 -0.482,-0.1151 -0.49,-0.0749 -0.495,-0.0341 -0.496,0.0068 -0.494,0.0478 -0.487,0.0883 -0.479,0.1284 -0.467,0.1674 -0.452,0.2055 -0.432,0.242 -0.412,0.2769 -0.387,0.31 -0.36,0.3408 -0.331,0.3695 -0.299,0.3955 -0.266,0.4188 -0.23,0.4393 -0.192,0.4569 -0.155,0.4712 -0.115,0.4823 -0.075,0.4903 -0.034,0.4947 0.007,0.4958 0.047,0.4936 0.089,0.488 0.128,0.479 0.168,0.4668 0.205,0.4513 0.242,0.4328 0.277,0.4114 0.31,0.3871 0.341,0.3602 0.369,0.3308 0.396,0.2992 0.419,0.2655 0.439,0.2299 0.457,0.193 0.471,0.1545 0.482,0.1151 0.491,0.0749 0.494,0.0341 z m 232.423996,-0.0273 0.491,-0.0749 0.482,-0.1151 0.471,-0.1545 0.457,-0.193 0.439,-0.2299 0.419,-0.2655 0.396,-0.2992 0.369,-0.3308 0.341,-0.3602 0.31,-0.3871 0.277,-0.4114 0.242,-0.4328 0.205,-0.4513 0.168,-0.4668 0.128,-0.479 0.089,-0.488 0.047,-0.4936 0.007,-0.4958 -0.034,-0.4947 -0.075,-0.4903 -0.115,-0.4823 -0.155,-0.4712 -0.192,-0.4569 -0.23,-0.4393 -0.266,-0.4188 -0.299,-0.3955 -0.331,-0.3695 -0.36,-0.3408 -0.387,-0.31 -0.412,-0.2769 -0.432,-0.242 -0.452,-0.2055 -0.467,-0.1674 -0.479,-0.1284 -0.487,-0.0883 -0.494,-0.0478 -0.496,-0.0068 -0.495,0.0341 -0.49,0.0749 -0.482,0.1151 -0.471,0.1545 -0.457,0.193 -0.44,0.2299 -0.418,0.2655 -0.396,0.2992 -0.369,0.3308 -0.341,0.3602 -0.31,0.3871 -0.277,0.4114 -0.242,0.4328 -0.206,0.4514 -0.167,0.4667 -0.128,0.479 -0.089,0.488 -0.047,0.4936 -0.007,0.4958 0.034,0.4947 0.075,0.4903 0.115,0.4823 0.154,0.4712 0.193,0.4569 0.23,0.4393 0.266,0.4189 0.299,0.3954 0.331,0.3695 0.36,0.3408 0.387,0.31 0.411,0.2769 0.433,0.242 0.452,0.2055 0.466,0.1674 0.479,0.1284 0.488,0.0883 0.494,0.0478 0.496,0.0068 z m 81.79,32.1078 0.491,-0.0658 0.485,-0.1062 0.474,-0.1459 0.46,-0.1845 0.443,-0.2219 0.424,-0.2577 0.401,-0.2919 0.375,-0.3239 0.348,-0.3539 0.317,-0.3813 0.284,-0.4063 0.25,-0.4283 0.214,-0.4475 0.176,-0.4636 0.137,-0.4766 0.097,-0.4862 0.057,-0.4927 0.016,-0.4956 -0.025,-0.4953 -0.066,-0.4915 -0.106,-0.4844 -0.146,-0.4739 -0.184,-0.4603 -0.222,-0.4435 -0.258,-0.4237002 -0.292,-0.4009 -0.324,-0.3754 -0.354,-0.3475 -0.381,-0.317 -0.406,-0.2844 -0.429,-0.2499 -0.447,-0.2137 -0.464,-0.176 -0.476,-0.1372 -0.486,-0.0973 -0.493,-0.0568 -0.496,-0.0159 -0.495,0.025 -0.492,0.0659 -0.484,0.1062 -0.474,0.1459 -0.46,0.1845 -0.444,0.2218 -0.423,0.2578 -0.401,0.2918 -0.376,0.324 -0.347,0.3539 -0.317,0.3813 -0.285,0.4062 -0.25,0.4283002 -0.213,0.4475 -0.176,0.4636 -0.137,0.4766 -0.098,0.4863 -0.056,0.4926 -0.016,0.4956 0.025,0.4953 0.066,0.4915 0.106,0.4844 0.146,0.474 0.184,0.4603 0.222,0.4435 0.258,0.4236 0.292,0.4009 0.324,0.3755 0.353,0.3474 0.382,0.317 0.406,0.2845 0.428,0.2499 0.448,0.2137 0.463,0.176 0.477,0.1371 0.486,0.0973 0.493,0.0568 0.495,0.016 z m -396.003,0.0091 0.493,-0.0568 0.486,-0.0973 0.477,-0.1371 0.463,-0.176 0.448,-0.2137 0.428,-0.2499 0.406,-0.2845 0.382,-0.317 0.353,-0.3474 0.324,-0.3755 0.292,-0.4009 0.258,-0.4236 0.222,-0.4435 0.184,-0.4603 0.146,-0.474 0.106,-0.4844 0.066,-0.4915 0.025,-0.4953 -0.016,-0.4956 -0.056,-0.4926 -0.098,-0.4863 -0.137,-0.4766 -0.176,-0.4636 -0.213,-0.4475 -0.25,-0.4283002 -0.285,-0.4062 -0.317,-0.3813 -0.347,-0.3539 -0.376,-0.324 -0.401,-0.2918 -0.423,-0.2578 -0.444,-0.2218 -0.46,-0.1845 -0.474,-0.1459 -0.484,-0.1062 -0.492,-0.0659 -0.495,-0.025 -0.496,0.0159 -0.493,0.0568 -0.486,0.0973 -0.476,0.1372 -0.464,0.176 -0.447,0.2137 -0.429,0.2499 -0.406,0.2844 -0.381,0.317 -0.354,0.3475 -0.324,0.3754 -0.292,0.4009 -0.258,0.4237002 -0.222,0.4435 -0.184,0.4603 -0.146,0.4739 -0.106,0.4844 -0.066,0.4915 -0.025,0.4953 0.016,0.4956 0.057,0.4927 0.097,0.4862 0.137,0.4766 0.176,0.4636 0.214,0.4475 0.25,0.4283 0.284,0.4063 0.317,0.3813 0.348,0.3539 0.375,0.3239 0.401,0.2919 0.424,0.2577 0.443,0.2219 0.46,0.1845 0.474,0.1459 0.485,0.1062 0.491,0.0658 0.496,0.0251 z m 139.8128038,1.4104 0.4936,-0.0478 0.488,-0.0883 0.479,-0.1284 0.4668,-0.1674 0.4513,-0.2055 0.4328,-0.242 0.4114,-0.2769 0.3871,-0.31 0.3602,-0.3408 0.3308,-0.3695 0.2992,-0.3954 0.2655,-0.4189 0.23,-0.4393 0.1929,-0.4569 0.1545,-0.4712 0.1151,-0.4823 0.0749,-0.4903 0.0341,-0.4947 -0.0068,-0.4958 -0.0478,-0.4936 -0.0883,-0.488 -0.1284,-0.479 -0.1674,-0.4667 -0.2055,-0.4514 -0.242,-0.4328 -0.2769,-0.4114 -0.31,-0.3871 -0.3408,-0.3602 -0.3695,-0.3308002 -0.3954,-0.2992 -0.4189,-0.2655 -0.4393,-0.2299 -0.4569,-0.193 -0.4712,-0.1545 -0.4823,-0.1151 -0.4902,-0.0749 -0.4948,-0.0341 -0.4958,0.0068 -0.4936,0.0478 -0.488,0.0883 -0.479,0.1284 -0.4668,0.1674 -0.4513,0.2055 -0.4327998,0.242 -0.4114,0.2769 -0.3871,0.31 -0.3602,0.3408002 -0.3308,0.3695 -0.2992,0.3955 -0.2654,0.4188 -0.23,0.4393 -0.193,0.4569 -0.1545,0.4712 -0.1151,0.4823 -0.0749,0.4903 -0.0341,0.4947 0.0068,0.4958 0.0478,0.4936 0.0883,0.488 0.1284,0.479 0.1674,0.4668 0.2055,0.4513 0.242,0.4328 0.2769,0.4114 0.31,0.3871 0.3408,0.3602 0.3695,0.3308 0.3955,0.2992 0.4188,0.2655 0.4392998,0.2299 0.4569,0.193 0.4712,0.1545 0.4823,0.1151 0.4903,0.0749 0.4947,0.0341 z m 116.3768962,-0.0273 0.4903,-0.0749 0.4823,-0.1151 0.4712,-0.1545 0.4569,-0.193 0.4393,-0.2299 0.4188,-0.2655 0.3955,-0.2992 0.3695,-0.3308 0.3408,-0.3602 0.31,-0.3871 0.2769,-0.4114 0.242,-0.4328 0.2055,-0.4513 0.1674,-0.4668 0.1284,-0.479 0.0883,-0.488 0.0478,-0.4936 0.007,-0.4958 -0.0341,-0.4947 -0.0749,-0.4903 -0.1151,-0.4823 -0.1545,-0.4712 -0.193,-0.4569 -0.23,-0.4393 -0.2654,-0.4188 -0.2992,-0.3955 -0.3308,-0.3695 -0.3602,-0.3408002 -0.3871,-0.31 -0.4114,-0.2769 -0.4328,-0.242 -0.4513,-0.2055 -0.4668,-0.1674 -0.479,-0.1284 -0.488,-0.0883 -0.4936,-0.0478 -0.4958,-0.0068 -0.4948,0.0341 -0.4902,0.0749 -0.4823,0.1151 -0.4712,0.1545 -0.4569,0.193 -0.4393,0.2299 -0.4189,0.2655 -0.3954,0.2992 -0.3695,0.3308002 -0.3408,0.3602 -0.31,0.3871 -0.2769,0.4114 -0.242,0.4328 -0.2055,0.4514 -0.1674,0.4667 -0.1284,0.479 -0.0883,0.488 -0.0478,0.4936 -0.007,0.4958 0.0341,0.4947 0.0749,0.4903 0.1151,0.4823 0.1545,0.4712 0.1929,0.4569 0.23,0.4393 0.2655,0.4189 0.2992,0.3954 0.3308,0.3695 0.3602,0.3408 0.3871,0.31 0.4114,0.2769 0.4328,0.242 0.4513,0.2055 0.4668,0.1674 0.479,0.1284 0.488,0.0883 0.4936,0.0478 0.4958,0.0068 z m 75.8113,33.51589 0.493,-0.06132 0.485,-0.10178 0.475,-0.14149 0.462,-0.18027 0.446,-0.21779 0.426,-0.25385 0.403,-0.28816 0.379,-0.32049 0.35,-0.35067 0.321,-0.3784 0.288,-0.40359 0.254,-0.426 0.218,-0.44551 0.18,-0.46197 0.141,-0.4753 0.102,-0.485336 0.061,-0.492096 0.021,-0.495468 -0.021,-0.495468 -0.061,-0.492096 -0.102,-0.485336 -0.141,-0.4753 -0.18,-0.46197 -0.218,-0.44551 -0.254,-0.426 -0.288,-0.40359 -0.321,-0.3784 -0.35,-0.35067 -0.379,-0.32049 -0.403,-0.28816 -0.426,-0.25385 -0.446,-0.21779 -0.462,-0.18027 -0.475,-0.14149 -0.485,-0.10178 -0.493,-0.06132 -0.495,-0.02051 -0.495,0.02051 -0.493,0.06132 -0.485,0.10178 -0.475,0.14149 -0.462,0.18027 -0.446,0.21779 -0.426,0.25385 -0.403,0.28816 -0.379,0.32049 -0.35,0.35067 -0.321,0.3784 -0.288,0.40359 -0.254,0.426 -0.218,0.44551 -0.18,0.46197 -0.141,0.4753 -0.102,0.485336 -0.062,0.492096 -0.02,0.495468 0.02,0.495468 0.062,0.492096 0.102,0.485336 0.141,0.4753 0.18,0.46197 0.218,0.44551 0.254,0.426 0.288,0.40359 0.321,0.3784 0.35,0.35067 0.379,0.32049 0.403,0.28816 0.426,0.25385 0.446,0.21779 0.462,0.18027 0.475,0.14149 0.485,0.10178 0.493,0.06132 0.495,0.02051 z m -267.999996,0 0.493,-0.06132 0.485,-0.10178 0.475,-0.14149 0.462,-0.18027 0.446,-0.21779 0.426,-0.25385 0.403,-0.28816 0.379,-0.32049 0.35,-0.35067 0.321,-0.3784 0.288,-0.40359 0.254,-0.426 0.218,-0.44551 0.18,-0.46197 0.141,-0.4753 0.102,-0.485336 0.062,-0.492096 0.02,-0.495468 -0.02,-0.495468 -0.062,-0.492096 -0.102,-0.485336 -0.141,-0.4753 -0.18,-0.46197 -0.218,-0.44551 -0.254,-0.426 -0.288,-0.40359 -0.321,-0.3784 -0.35,-0.35067 -0.379,-0.32049 -0.403,-0.28816 -0.426,-0.25385 -0.446,-0.21779 -0.462,-0.18027 -0.475,-0.14149 -0.485,-0.10178 -0.493,-0.06132 -0.495,-0.02051 -0.495,0.02051 -0.493,0.06132 -0.485,0.10178 -0.475,0.14149 -0.462,0.18027 -0.446,0.21779 -0.426,0.25385 -0.403,0.28816 -0.379,0.32049 -0.35,0.35067 -0.321,0.3784 -0.288,0.40359 -0.254,0.426 -0.218,0.44551 -0.18,0.46197 -0.141,0.4753 -0.102,0.485336 -0.061,0.492096 -0.021,0.495468 0.021,0.495468 0.061,0.492096 0.102,0.485336 0.141,0.4753 0.18,0.46197 0.218,0.44551 0.254,0.426 0.288,0.40359 0.321,0.3784 0.35,0.35067 0.379,0.32049 0.403,0.28816 0.426,0.25385 0.446,0.21779 0.462,0.18027 0.475,0.14149 0.485,0.10178 0.493,0.06132 0.495,0.02051 z m 134.000468,0 0.492096,-0.06132 0.485336,-0.10178 0.4753,-0.14149 0.46197,-0.18027 0.44551,-0.21779 0.426,-0.25385 0.40359,-0.28816 0.3784,-0.32049 0.35067,-0.35067 0.32049,-0.3784 0.28816,-0.40359 0.25385,-0.426 0.21779,-0.44551 0.18027,-0.46197 0.14149,-0.4753 0.10178,-0.485336 0.06132,-0.492096 0.02051,-0.495468 -0.02051,-0.495468 -0.06132,-0.492096 -0.10178,-0.485336 -0.14149,-0.4753 -0.18027,-0.46197 -0.21779,-0.44551 -0.25385,-0.426 -0.28816,-0.40359 -0.32049,-0.3784 -0.35067,-0.35067 -0.3784,-0.32049 -0.40359,-0.28816 -0.426,-0.25385 -0.44551,-0.21779 -0.46197,-0.18027 -0.4753,-0.14149 -0.485336,-0.10178 -0.492096,-0.06132 -0.495468,-0.02051 -0.495468,0.02051 -0.492096,0.06132 -0.485336,0.10178 -0.4753,0.14149 -0.46197,0.18027 -0.44551,0.21779 -0.426,0.25385 -0.40359,0.28816 -0.3784,0.32049 -0.35067,0.35067 -0.32049,0.3784 -0.28816,0.40359 -0.25385,0.426 -0.21779,0.44551 -0.18027,0.46197 -0.14149,0.4753 -0.10178,0.485336 -0.06132,0.492096 -0.02051,0.495468 0.02051,0.495468 0.06132,0.492096 0.10178,0.485336 0.14149,0.4753 0.18027,0.46197 0.21779,0.44551 0.25385,0.426 0.28816,0.40359 0.32049,0.3784 0.35067,0.35067 0.3784,0.32049 0.40359,0.28816 0.426,0.25385 0.44551,0.21779 0.46197,0.18027 0.4753,0.14149 0.485336,0.10178 0.492096,0.06132 0.495468,0.02051 z m 57.858728,33.51141 0.4936,-0.0478 0.488,-0.0883 0.479,-0.1284 0.4668,-0.1674 0.4513,-0.2055 0.4328,-0.242 0.4114,-0.2769 0.3871,-0.31 0.3602,-0.3408 0.3308,-0.3695 0.2992,-0.3955 0.2654,-0.4188 0.23,-0.4393 0.193,-0.4569 0.1545,-0.4712 0.1151,-0.4823 0.0749,-0.4903 0.0341,-0.4947 -0.007,-0.4958 -0.0478,-0.4936 -0.0883,-0.488 -0.1284,-0.479 -0.1674,-0.4668 -0.2055,-0.4513 -0.242,-0.4328 -0.2769,-0.4114 -0.31,-0.3871 -0.3408,-0.3602 -0.3695,-0.3308 -0.3955,-0.2992 -0.4188,-0.2655 -0.4393,-0.2299 -0.4569,-0.193 -0.4712,-0.1545 -0.4823,-0.1151 -0.4903,-0.0749 -0.4947,-0.0341 -0.4958,0.0068 -0.4936,0.0478 -0.488,0.0883 -0.479,0.1284 -0.4668,0.1674 -0.4513,0.2055 -0.4328,0.242 -0.4114,0.2769 -0.3871,0.31 -0.3602,0.3408 -0.3308,0.3695 -0.2992,0.3954 -0.2655,0.4189 -0.23,0.4393 -0.1929,0.4569 -0.1545,0.4712 -0.1151,0.4823 -0.0749,0.4903 -0.0341,0.4947 0.007,0.4958 0.0478,0.4936 0.0883,0.488 0.1284,0.479 0.1674,0.4667 0.2055,0.4514 0.242,0.4328 0.2769,0.4114 0.31,0.3871 0.3408,0.3602 0.3695,0.3308 0.3954,0.2992 0.4189,0.2655 0.4393,0.2299 0.4569,0.193 0.4712,0.1545 0.4823,0.1151 0.4902,0.0749 0.4948,0.0341 z m -115.7177962,-0.0273 0.4902,-0.0749 0.4823,-0.1151 0.4712,-0.1545 0.4569,-0.193 0.4393,-0.2299 0.4189,-0.2655 0.3954,-0.2992 0.3695,-0.3308 0.3408,-0.3602 0.31,-0.3871 0.2769,-0.4114 0.242,-0.4328 0.2055,-0.4514 0.1674,-0.4667 0.1284,-0.479 0.0883,-0.488 0.0478,-0.4936 0.0068,-0.4958 -0.0341,-0.4947 -0.0749,-0.4903 -0.1151,-0.4823 -0.1545,-0.4712 -0.1929,-0.4569 -0.23,-0.4393 -0.2655,-0.4189 -0.2992,-0.3954 -0.3308,-0.3695 -0.3602,-0.3408 -0.3871,-0.31 -0.4114,-0.2769 -0.4328,-0.242 -0.4513,-0.2055 -0.4668,-0.1674 -0.479,-0.1284 -0.488,-0.0883 -0.4936,-0.0478 -0.4958,-0.0068 -0.4947,0.0341 -0.4903,0.0749 -0.4823,0.1151 -0.4712,0.1545 -0.4569,0.193 -0.4392998,0.2299 -0.4188,0.2655 -0.3955,0.2992 -0.3695,0.3308 -0.3408,0.3602 -0.31,0.3871 -0.2769,0.4114 -0.242,0.4328 -0.2055,0.4513 -0.1674,0.4668 -0.1284,0.479 -0.0883,0.488 -0.0478,0.4936 -0.0068,0.4958 0.0341,0.4947 0.0749,0.4903 0.1151,0.4823 0.1545,0.4712 0.193,0.4569 0.23,0.4393 0.2654,0.4188 0.2992,0.3955 0.3308,0.3695 0.3602,0.3408 0.3871,0.31 0.4114,0.2769 0.4327998,0.242 0.4513,0.2055 0.4668,0.1674 0.479,0.1284 0.488,0.0883 0.4936,0.0478 0.4958,0.0068 z m -140.0324038,1.4144 0.492,-0.0659 0.484,-0.1062 0.474,-0.1459 0.46,-0.1845 0.444,-0.2218 0.423,-0.2578 0.401,-0.2918 0.376,-0.324 0.347,-0.3539 0.317,-0.3813 0.285,-0.4062 0.25,-0.4283 0.213,-0.4475 0.176,-0.4636 0.137,-0.4766 0.098,-0.4863 0.056,-0.4926 0.016,-0.4956 -0.025,-0.4953 -0.066,-0.4915 -0.106,-0.4844 -0.146,-0.474 -0.184,-0.4603 -0.222,-0.4435 -0.258,-0.4236 -0.292,-0.4009 -0.324,-0.3755 -0.353,-0.3474 -0.382,-0.317 -0.406,-0.2845 -0.428,-0.2499 -0.448,-0.2137 -0.463,-0.176 -0.477,-0.1371 -0.486,-0.0973 -0.493,-0.0568 -0.495,-0.016 -0.496,0.0251 -0.491,0.0658 -0.485,0.1062 -0.474,0.1459 -0.46,0.1845 -0.443,0.2219 -0.424,0.2577 -0.401,0.2919 -0.375,0.3239 -0.348,0.3539 -0.317,0.3813 -0.284,0.4063 -0.25,0.4283 -0.214,0.4475 -0.176,0.4636 -0.137,0.4766 -0.097,0.4862 -0.057,0.4927 -0.016,0.4956 0.025,0.4953 0.066,0.4915 0.106,0.4844 0.146,0.4739 0.184,0.4603 0.222,0.4435 0.258,0.4237 0.292,0.4009 0.324,0.3754 0.354,0.3475 0.381,0.317 0.406,0.2844 0.429,0.2499 0.447,0.2137 0.464,0.176 0.476,0.1372 0.486,0.0973 0.493,0.0568 0.496,0.0159 z m 395.783,0.0091 0.493,-0.0568 0.486,-0.0973 0.476,-0.1372 0.464,-0.176 0.447,-0.2137 0.429,-0.2499 0.406,-0.2844 0.381,-0.317 0.354,-0.3475 0.324,-0.3754 0.292,-0.4009 0.258,-0.4237 0.222,-0.4435 0.184,-0.4603 0.146,-0.4739 0.106,-0.4844 0.066,-0.4915 0.025,-0.4953 -0.016,-0.4956 -0.057,-0.4927 -0.097,-0.4862 -0.137,-0.4766 -0.176,-0.4636 -0.214,-0.4475 -0.25,-0.4283 -0.284,-0.4063 -0.317,-0.3813 -0.348,-0.3539 -0.375,-0.3239 -0.401,-0.2919 -0.424,-0.2577 -0.443,-0.2219 -0.46,-0.1845 -0.474,-0.1459 -0.485,-0.1062 -0.491,-0.0658 -0.496,-0.0251 -0.495,0.016 -0.493,0.0568 -0.486,0.0973 -0.477,0.1371 -0.463,0.176 -0.448,0.2137 -0.428,0.2499 -0.406,0.2845 -0.382,0.317 -0.353,0.3474 -0.324,0.3755 -0.292,0.4009 -0.258,0.4236 -0.222,0.4435 -0.184,0.4603 -0.146,0.474 -0.106,0.4844 -0.066,0.4915 -0.025,0.4953 0.016,0.4956 0.056,0.4926 0.098,0.4863 0.137,0.4766 0.176,0.4636 0.213,0.4475 0.25,0.4283 0.285,0.4062 0.317,0.3813 0.347,0.3539 0.376,0.324 0.401,0.2918 0.423,0.2578 0.444,0.2218 0.46,0.1845 0.474,0.1459 0.484,0.1062 0.492,0.0659 0.495,0.025 z m -197.891528,32.092396 0.492096,-0.0613 0.485336,-0.1018 0.4753,-0.1415 0.46197,-0.1803 0.44551,-0.2178 0.426,-0.2538 0.40359,-0.2882 0.3784,-0.3205 0.35067,-0.3506 0.32049,-0.3784 0.28816,-0.4036 0.25385,-0.426 0.21779,-0.4455 0.18027,-0.462 0.14149,-0.4753 0.10178,-0.4853 0.06132,-0.4921 0.02051,-0.4955 -0.02051,-0.4955 -0.06132,-0.4921 -0.10178,-0.4853 -0.14149,-0.4753 -0.18027,-0.462 -0.21779,-0.4455 -0.25385,-0.426 -0.28816,-0.4036 -0.32049,-0.3784 -0.35067,-0.3507 -0.3784,-0.3204 -0.40359,-0.2882 -0.426,-0.2539 -0.44551,-0.2177 -0.46197,-0.1803 -0.4753,-0.1415 -0.485336,-0.1018 -0.492096,-0.0613 -0.495468,-0.0205 -0.495468,0.0205 -0.492096,0.0613 -0.485336,0.1018 -0.4753,0.1415 -0.46197,0.1803 -0.44551,0.2177 -0.426,0.2539 -0.40359,0.2882 -0.3784,0.3204 -0.35067,0.3507 -0.32049,0.3784 -0.28816,0.4036 -0.25385,0.426 -0.21779,0.4455 -0.18027,0.462 -0.14149,0.4753 -0.10178,0.4853 -0.06132,0.4921 -0.02051,0.4955 0.02051,0.4955 0.06132,0.4921 0.10178,0.4853 0.14149,0.4753 0.18027,0.462 0.21779,0.4455 0.25385,0.426 0.28816,0.4036 0.32049,0.3784 0.35067,0.3506 0.3784,0.3205 0.40359,0.2882 0.426,0.2538 0.44551,0.2178 0.46197,0.1803 0.4753,0.1415 0.485336,0.1018 0.492096,0.0613 0.495468,0.0205 z m 115.882528,0.0114 0.494,-0.0478 0.487,-0.0883 0.479,-0.1284 0.467,-0.1674 0.452,-0.2055 0.432,-0.242 0.412,-0.2769 0.387,-0.31 0.36,-0.3408 0.331,-0.3695 0.299,-0.3955 0.266,-0.4188 0.23,-0.4393 0.192,-0.4569 0.155,-0.4712 0.115,-0.4823 0.075,-0.4903 0.034,-0.4947 -0.007,-0.4958 -0.047,-0.4936 -0.089,-0.488 -0.128,-0.479 -0.168,-0.4668 -0.205,-0.4513 -0.242,-0.4328 -0.277,-0.4114 -0.31,-0.3871 -0.341,-0.3602 -0.369,-0.3308 -0.396,-0.2992 -0.419,-0.2655 -0.439,-0.2299 -0.457,-0.193 -0.471,-0.1545 -0.482,-0.1151 -0.491,-0.0749 -0.494,-0.0341 -0.496,0.007 -0.494,0.0478 -0.488,0.0883 -0.479,0.1284 -0.466,0.1674 -0.452,0.2055 -0.433,0.242 -0.411,0.2769 -0.387,0.31 -0.36,0.3408 -0.331,0.3695 -0.299,0.3954 -0.266,0.4189 -0.23,0.4393 -0.193,0.4569 -0.154,0.4712 -0.115,0.4823 -0.075,0.4903 -0.034,0.4947 0.007,0.4958 0.047,0.4936 0.089,0.488 0.128,0.479 0.167,0.4667 0.206,0.4514 0.242,0.4328 0.277,0.4114 0.31,0.3871 0.341,0.3602 0.369,0.3308 0.396,0.2992 0.418,0.2655 0.44,0.2299 0.457,0.193 0.471,0.1545 0.482,0.1151 0.49,0.0749 0.495,0.0341 z m -231.764996,-0.0273 0.49,-0.0749 0.482,-0.1151 0.471,-0.1545 0.457,-0.193 0.44,-0.2299 0.418,-0.2655 0.396,-0.2992 0.369,-0.3308 0.341,-0.3602 0.31,-0.3871 0.277,-0.4114 0.242,-0.4328 0.206,-0.4514 0.167,-0.4667 0.128,-0.479 0.089,-0.488 0.047,-0.4936 0.007,-0.4958 -0.034,-0.4947 -0.075,-0.4903 -0.115,-0.4823 -0.154,-0.4712 -0.193,-0.4569 -0.23,-0.4393 -0.266,-0.4189 -0.299,-0.3954 -0.331,-0.3695 -0.36,-0.3408 -0.387,-0.31 -0.411,-0.2769 -0.433,-0.242 -0.452,-0.2055 -0.466,-0.1674 -0.479,-0.1284 -0.488,-0.0883 -0.494,-0.0478 -0.496,-0.007 -0.494,0.0341 -0.491,0.0749 -0.482,0.1151 -0.471,0.1545 -0.457,0.193 -0.439,0.2299 -0.419,0.2655 -0.396,0.2992 -0.369,0.3308 -0.341,0.3602 -0.31,0.3871 -0.277,0.4114 -0.242,0.4328 -0.205,0.4513 -0.168,0.4668 -0.128,0.479 -0.089,0.488 -0.047,0.4936 -0.007,0.4958 0.034,0.4947 0.075,0.4903 0.115,0.4823 0.155,0.4712 0.192,0.4569 0.23,0.4393 0.266,0.4188 0.299,0.3955 0.331,0.3695 0.36,0.3408 0.387,0.31 0.412,0.2769 0.432,0.242 0.452,0.2055 0.467,0.1674 0.479,0.1284 0.487,0.0883 0.494,0.0478 0.496,0.007 z m 289.788996,33.5274 0.493,-0.048 0.488,-0.088 0.479,-0.129 0.467,-0.167 0.451,-0.205 0.433,-0.242 0.412,-0.277 0.387,-0.31 0.36,-0.341 0.331,-0.37 0.299,-0.395 0.265,-0.419 0.23,-0.439 0.193,-0.457 0.155,-0.471 0.115,-0.483 0.075,-0.49 0.034,-0.495 -0.007,-0.496 -0.048,-0.4931 -0.088,-0.488 -0.128,-0.479 -0.168,-0.4668 -0.205,-0.4513 -0.242,-0.4328 -0.277,-0.4114 -0.31,-0.3871 -0.341,-0.3602 -0.37,-0.3308 -0.395,-0.2992 -0.419,-0.2655 -0.439,-0.2299 -0.457,-0.193 -0.471,-0.1545 -0.483,-0.1151 -0.49,-0.0749 -0.495,-0.0341 -0.495,0.007 -0.494,0.0478 -0.488,0.0883 -0.479,0.1284 -0.467,0.1674 -0.451,0.2055 -0.433,0.242 -0.411,0.2769 -0.387,0.31 -0.361,0.3408 -0.33,0.3695 -0.3,0.3954 -0.265,0.4189 -0.23,0.4393 -0.193,0.4569 -0.155,0.4712 -0.115,0.4823 -0.074,0.4903 -0.035,0.495 0.007,0.496 0.048,0.493 0.088,0.488 0.129,0.479 0.167,0.467 0.206,0.451 0.242,0.433 0.277,0.411 0.309,0.388 0.341,0.36 0.37,0.33 0.395,0.3 0.419,0.265 0.439,0.23 0.457,0.193 0.471,0.155 0.483,0.115 0.49,0.075 0.495,0.034 z m -347.813,-0.027 0.49,-0.075 0.483,-0.115 0.471,-0.155 0.457,-0.193 0.439,-0.23 0.419,-0.265 0.395,-0.3 0.37,-0.33 0.341,-0.36 0.309,-0.388 0.277,-0.411 0.242,-0.433 0.206,-0.451 0.167,-0.467 0.129,-0.479 0.088,-0.488 0.048,-0.493 0.007,-0.496 -0.035,-0.495 -0.074,-0.4903 -0.115,-0.4823 -0.155,-0.4712 -0.193,-0.4569 -0.23,-0.4393 -0.265,-0.4189 -0.3,-0.3954 -0.33,-0.3695 -0.361,-0.3408 -0.387,-0.31 -0.411,-0.2769 -0.433,-0.242 -0.451,-0.2055 -0.467,-0.1674 -0.479,-0.1284 -0.488,-0.0883 -0.494,-0.0478 -0.495,-0.007 -0.495,0.0341 -0.49,0.0749 -0.483,0.1151 -0.471,0.1545 -0.457,0.193 -0.439,0.2299 -0.419,0.2655 -0.395,0.2992 -0.37,0.3308 -0.341,0.3602 -0.31,0.3871 -0.277,0.4114 -0.242,0.4328 -0.205,0.4513 -0.168,0.4668 -0.128,0.479 -0.088,0.488 -0.048,0.4931 -0.007,0.496 0.034,0.495 0.075,0.49 0.115,0.483 0.155,0.471 0.193,0.457 0.23,0.439 0.265,0.419 0.299,0.395 0.331,0.37 0.36,0.341 0.387,0.31 0.412,0.277 0.433,0.242 0.451,0.205 0.467,0.167 0.479,0.129 0.488,0.088 0.493,0.048 0.496,0.007 z m 241.071,15.547 0.4903,-0.075 0.4823,-0.115 0.4712,-0.155 0.4569,-0.192 0.4393,-0.23 0.4188,-0.266 0.3955,-0.299 0.3695,-0.331 0.3408,-0.36 0.31,-0.387 0.2769,-0.412 0.242,-0.432 0.2055,-0.452 0.1674,-0.467 0.1284,-0.479 0.0883,-0.487 0.0478,-0.494 0.007,-0.496 -0.0341,-0.495 -0.0749,-0.49 -0.1151,-0.482 -0.1545,-0.471 -0.193,-0.457 -0.2299,-0.44 -0.2655,-0.418 -0.2992,-0.396 -0.3308,-0.369 -0.3602,-0.341 -0.3871,-0.31 -0.4114,-0.277 -0.4328,-0.242 -0.4514,-0.206 -0.4667,-0.167 -0.479,-0.128 -0.488,-0.089 -0.4936,-0.047 -0.4958,-0.007 -0.4947,0.034 -0.4903,0.075 -0.4823,0.115 -0.4712,0.154 -0.4569,0.193 -0.4393,0.23 -0.4189,0.266 -0.3954,0.299 -0.3695,0.331 -0.3408,0.36 -0.31,0.387 -0.2769,0.411 -0.242,0.433 -0.2055,0.452 -0.1674,0.466 -0.1284,0.479 -0.0883,0.488 -0.0478,0.494 -0.007,0.496 0.0341,0.494 0.0749,0.491 0.1151,0.482 0.1545,0.471 0.193,0.457 0.2299,0.439 0.2655,0.419 0.2992,0.396 0.3308,0.369 0.3602,0.341 0.3871,0.31 0.4114,0.277 0.4328,0.242 0.4513,0.205 0.4668,0.168 0.479,0.128 0.488,0.089 0.4936,0.047 0.4958,0.007 z m -134.329496,0.027 0.4936,-0.047 0.488,-0.089 0.479,-0.128 0.4668,-0.168 0.4513,-0.205 0.4328,-0.242 0.4114,-0.277 0.3871,-0.31 0.3602,-0.341 0.3308,-0.369 0.2992,-0.396 0.2655,-0.419 0.2299,-0.439 0.193,-0.457 0.1545,-0.471 0.1151,-0.482 0.0749,-0.491 0.0341,-0.494 -0.0068,-0.496 -0.0478,-0.494 -0.0883,-0.488 -0.1284,-0.479 -0.1674,-0.466 -0.2055,-0.452 -0.242,-0.433 -0.2769,-0.411 -0.31,-0.387 -0.3408,-0.36 -0.3695,-0.331 -0.3954,-0.299 -0.4189,-0.266 -0.4393,-0.23 -0.4569,-0.193 -0.4712,-0.154 -0.4823,-0.115 -0.4903,-0.075 -0.4947,-0.034 -0.4958,0.007 -0.4936,0.047 -0.488,0.089 -0.479,0.128 -0.4667,0.167 -0.4514,0.206 -0.4328,0.242 -0.4114,0.277 -0.3871,0.31 -0.3602,0.341 -0.3308,0.369 -0.2992,0.396 -0.2655,0.418 -0.2299,0.44 -0.193,0.457 -0.1545,0.471 -0.1151,0.482 -0.0749,0.49 -0.0341,0.495 0.0068,0.496 0.0478,0.494 0.0883,0.487 0.1284,0.479 0.1674,0.467 0.2055,0.452 0.242,0.432 0.2769,0.412 0.31,0.387 0.3408,0.36 0.3695,0.331 0.3955,0.299 0.4188,0.266 0.4393,0.23 0.4569,0.192 0.4712,0.155 0.4823,0.115 0.4903,0.075 0.4947,0.034 z m 67.164968,17.941 0.492096,-0.061 0.485336,-0.102 0.4753,-0.141 0.46197,-0.18 0.44551,-0.218 0.426,-0.254 0.40359,-0.288 0.3784,-0.321 0.35067,-0.35 0.32049,-0.379 0.28816,-0.403 0.25385,-0.426 0.21779,-0.446 0.18027,-0.462 0.14149,-0.475 0.10178,-0.485 0.06132,-0.493 0.02051,-0.495 -0.02051,-0.495 -0.06132,-0.493 -0.10178,-0.485 -0.14149,-0.475 -0.18027,-0.462 -0.21779,-0.446 -0.25385,-0.426 -0.28816,-0.403 -0.32049,-0.379 -0.35067,-0.35 -0.3784,-0.321 -0.40359,-0.288 -0.426,-0.254 -0.44551,-0.218 -0.46197,-0.18 -0.4753,-0.141 -0.485336,-0.102 -0.492096,-0.062 -0.495468,-0.02 -0.495468,0.02 -0.492096,0.062 -0.485336,0.102 -0.4753,0.141 -0.46197,0.18 -0.44551,0.218 -0.426,0.254 -0.40359,0.288 -0.3784,0.321 -0.35067,0.35 -0.32049,0.379 -0.28816,0.403 -0.25385,0.426 -0.21779,0.446 -0.18027,0.462 -0.14149,0.475 -0.10178,0.485 -0.06132,0.493 -0.02051,0.495 0.02051,0.495 0.06132,0.493 0.10178,0.485 0.14149,0.475 0.18027,0.462 0.21779,0.446 0.25385,0.426 0.28816,0.403 0.32049,0.379 0.35067,0.35 0.3784,0.321 0.40359,0.288 0.426,0.254 0.44551,0.218 0.46197,0.18 0.4753,0.141 0.485336,0.102 0.492096,0.061 0.495468,0.021 z m -129.420468,19.99 0.494,-0.044 0.489,-0.083 0.48,-0.124 0.468,-0.164 0.454,-0.201 0.435,-0.238 0.414,-0.273 0.389,-0.306 0.364,-0.338 0.334,-0.366 0.303,-0.393 0.269,-0.416 0.234,-0.438 0.197,-0.455 0.159,-0.469 0.12,-0.482 0.079,-0.489 0.039,-0.495 -0.003,-0.496 -0.043,-0.494 -0.084,-0.488 -0.124,-0.48 -0.163,-0.469 -0.201,-0.453 -0.238,-0.435 -0.273,-0.414 -0.307,-0.39 -0.337,-0.363 -0.367,-0.334 -0.392,-0.303 -0.417,-0.269 -0.437,-0.234 -0.455,-0.198 -0.47,-0.158 -0.481,-0.12 -0.49,-0.079 -0.494,-0.039 -0.496,0.002 -0.494,0.043 -0.489,0.084 -0.48,0.124 -0.468,0.163 -0.453,0.202 -0.435,0.238 -0.414,0.273 -0.39,0.306 -0.363,0.338 -0.335,0.366 -0.302,0.393 -0.27,0.416 -0.234,0.438 -0.197,0.455 -0.159,0.469 -0.119,0.482 -0.08,0.489 -0.038,0.495 0.002,0.495 0.043,0.494 0.084,0.489 0.124,0.48 0.163,0.469 0.202,0.453 0.238,0.435 0.273,0.414 0.306,0.39 0.338,0.363 0.366,0.334 0.393,0.303 0.416,0.269 0.437,0.234 0.455,0.197 0.47,0.159 0.481,0.12 0.49,0.079 0.494,0.039 z m 258.839996,-0.037 0.49,-0.079 0.481,-0.12 0.47,-0.159 0.455,-0.197 0.437,-0.234 0.416,-0.269 0.393,-0.303 0.366,-0.334 0.338,-0.363 0.306,-0.39 0.273,-0.414 0.238,-0.435 0.202,-0.453 0.163,-0.469 0.124,-0.48 0.084,-0.489 0.043,-0.494 0.002,-0.495 -0.038,-0.495 -0.08,-0.489 -0.119,-0.482 -0.159,-0.469 -0.197,-0.455 -0.234,-0.438 -0.27,-0.416 -0.302,-0.393 -0.335,-0.366 -0.363,-0.338 -0.39,-0.306 -0.414,-0.273 -0.435,-0.238 -0.453,-0.202 -0.468,-0.163 -0.48,-0.124 -0.489,-0.084 -0.494,-0.043 -0.496,-0.002 -0.494,0.039 -0.49,0.079 -0.481,0.12 -0.47,0.158 -0.455,0.198 -0.437,0.234 -0.417,0.269 -0.392,0.303 -0.367,0.334 -0.337,0.363 -0.307,0.39 -0.273,0.414 -0.238,0.435 -0.201,0.453 -0.163,0.469 -0.124,0.48 -0.084,0.488 -0.043,0.494 -0.003,0.496 0.039,0.495 0.079,0.489 0.12,0.482 0.159,0.469 0.197,0.455 0.234,0.438 0.269,0.416 0.303,0.393 0.334,0.366 0.364,0.338 0.389,0.306 0.414,0.273 0.435,0.238 0.454,0.201 0.468,0.164 0.48,0.124 0.489,0.083 0.494,0.044 0.496,0.002 z m -198.275496,34.934 0.4931,-0.052 0.4872,-0.093 0.4778,-0.133 0.4652,-0.172 0.4494,-0.209 0.4306,-0.246 0.4088,-0.281 0.3843,-0.314 0.357,-0.344 0.3274,-0.372 0.2955,-0.398 0.2616,-0.422 0.226,-0.441 0.1887,-0.459 0.1502,-0.472 0.1107,-0.484 0.0704,-0.491 0.0295,-0.495 -0.0113,-0.495 -0.0523,-0.493 -0.0929,-0.488 -0.1327,-0.477 -0.1718,-0.466 -0.2095,-0.449 -0.246,-0.431 -0.2807,-0.408 -0.3135,-0.385 -0.3441,-0.357 -0.3725,-0.327 -0.3982,-0.296 -0.4213,-0.261 -0.4414,-0.226 -0.4586,-0.189 -0.4726,-0.15 -0.4834,-0.111 -0.4909,-0.07 -0.495,-0.03 -0.4958,0.012 -0.4931,0.052 -0.4871,0.093 -0.4779,0.132 -0.4652,0.172 -0.4494,0.21 -0.4306,0.246 -0.4088,0.28 -0.3843,0.314 -0.357,0.344 -0.3274,0.373 -0.2955,0.398 -0.2616,0.421 -0.226,0.442 -0.1887,0.458 -0.1502,0.473 -0.1107,0.483 -0.0703,0.491 -0.0296,0.495 0.0114,0.496 0.0522,0.493 0.0929,0.487 0.1327,0.478 0.1718,0.465 0.2096,0.449 0.2459,0.431 0.2807,0.409 0.3135,0.384 0.3442,0.357 0.3724,0.328 0.3983,0.295 0.4212,0.262 0.4415,0.226 0.4585,0.188 0.4726,0.151 0.4834,0.11 0.4909,0.071 0.495,0.029 z m 137.711796,-0.018 0.4909,-0.071 0.4834,-0.11 0.4726,-0.151 0.4585,-0.188 0.4415,-0.226 0.4212,-0.262 0.3983,-0.295 0.3724,-0.328 0.3442,-0.357 0.3135,-0.384 0.2807,-0.409 0.2459,-0.431 0.2096,-0.449 0.1718,-0.465 0.1327,-0.478 0.0929,-0.487 0.0522,-0.493 0.0114,-0.496 -0.0296,-0.495 -0.0703,-0.491 -0.1107,-0.483 -0.1502,-0.473 -0.1887,-0.458 -0.226,-0.442 -0.2616,-0.421 -0.2955,-0.398 -0.3274,-0.373 -0.357,-0.344 -0.3843,-0.314 -0.4088,-0.28 -0.4306,-0.246 -0.4494,-0.21 -0.4652,-0.172 -0.4779,-0.132 -0.4871,-0.093 -0.4931,-0.052 -0.4958,-0.012 -0.495,0.03 -0.4909,0.07 -0.4834,0.111 -0.4726,0.15 -0.4586,0.189 -0.4414,0.226 -0.4213,0.261 -0.3982,0.296 -0.3725,0.327 -0.3441,0.357 -0.3135,0.385 -0.2807,0.408 -0.246,0.431 -0.2095,0.449 -0.1718,0.466 -0.1327,0.477 -0.0929,0.488 -0.0523,0.493 -0.0113,0.495 0.0295,0.495 0.0704,0.491 0.1107,0.484 0.1502,0.472 0.1887,0.459 0.226,0.441 0.2616,0.422 0.2955,0.398 0.3274,0.372 0.357,0.344 0.3843,0.314 0.4088,0.281 0.4306,0.246 0.4494,0.209 0.4652,0.172 0.4778,0.133 0.4872,0.093 0.4931,0.052 0.4958,0.011 z m -68.855828,12.131 0.492096,-0.061 0.485336,-0.102 0.4753,-0.141 0.46197,-0.18 0.44551,-0.218 0.426,-0.254 0.40359,-0.288 0.3784,-0.321 0.35067,-0.35 0.32049,-0.379 0.28816,-0.403 0.25385,-0.426 0.21779,-0.446 0.18027,-0.462 0.14149,-0.475 0.10178,-0.485 0.06132,-0.493 0.02051,-0.495 -0.02051,-0.495 -0.06132,-0.493 -0.10178,-0.485 -0.14149,-0.475 -0.18027,-0.462 -0.21779,-0.446 -0.25385,-0.426 -0.28816,-0.403 -0.32049,-0.379 -0.35067,-0.35 -0.3784,-0.321 -0.40359,-0.288 -0.426,-0.254 -0.44551,-0.218 -0.46197,-0.18 -0.4753,-0.141 -0.485336,-0.102 -0.492096,-0.062 -0.495468,-0.02 -0.495468,0.02 -0.492096,0.062 -0.485336,0.102 -0.4753,0.141 -0.46197,0.18 -0.44551,0.218 -0.426,0.254 -0.40359,0.288 -0.3784,0.321 -0.35067,0.35 -0.32049,0.379 -0.28816,0.403 -0.25385,0.426 -0.21779,0.446 -0.18027,0.462 -0.14149,0.475 -0.10178,0.485 -0.06132,0.493 -0.02051,0.495 0.02051,0.495 0.06132,0.493 0.10178,0.485 0.14149,0.475 0.18027,0.462 0.21779,0.446 0.25385,0.426 0.28816,0.403 0.32049,0.379 0.35067,0.35 0.3784,0.321 0.40359,0.288 0.426,0.254 0.44551,0.218 0.46197,0.18 0.4753,0.141 0.485336,0.102 0.492096,0.061 0.495468,0.021 z"
     stroke="#000000"
     fill="#d3d3d3"
     stroke-width="0.5"
     id="path1503" />
  <circle
     style="fill:none;stroke:#ff0000;stroke-width:6.25;stop-color:#000000;stroke-miterlimit:4;stroke-dasharray:none"
     id="path1555"
     cx="51.004875"
     cy="48.004875"
     r="250" />
  <metadata
     id="metadata1557">
    <rdf:RDF>
      <cc:Work
         rdf:about="">
        <dc:title>OpenSCAD Model</dc:title>
      </cc:Work>
    </rdf:RDF>
  </metadata>
</svg>
